<?xml version="1.0" encoding="UTF-8" standalone="no"?>
<!-- Created with Inkscape (http://www.inkscape.org/) -->

<svg
   width="128"
   height="32"
   viewBox="0 0 128 32"
   version="1.1"
   id="svg1"
   xml:space="preserve"
   xmlns="http://www.w3.org/2000/svg"
   xmlns:svg="http://www.w3.org/2000/svg"><defs
     id="defs1" /><path
     id="path2"
     style="fill:#f9f9f9;fill-opacity:1;stroke:#ffffff;stroke-width:0.174;stroke-dasharray:none;stroke-opacity:1"
     d="m 15.994141,2.0039062 c -0.0322,-0.011592 -0.06013,0.00344 -0.103516,0.039063 -0.05347,0.043899 -0.193031,0.2288532 -0.310547,0.4101562 -0.298833,0.461037 -0.295797,0.7059635 0.01172,1.0390625 0.12377,0.134067 0.239632,0.3045131 0.257812,0.3769531 0.08687,0.346128 -0.141142,1.5135807 -0.392578,2.0097656 -0.728766,1.438152 -2.25973,1.1971586 -3.435547,-0.5390624 -0.132456,-0.1955861 -0.300466,-0.5010615 -0.373046,-0.6796876 -0.128671,-0.3166749 -0.128783,-0.3315799 -0.03906,-0.609375 0.08535,-0.264286 0.08503,-0.3002116 0,-0.4785156 -0.08096,-0.169766 -0.701311,-0.6953125 -0.820313,-0.6953125 -0.0687,0 -0.11654,0.1657579 -0.15039,0.5292969 -0.04499,0.483128 0.06212,0.707334 0.423828,0.890625 0.332386,0.168433 0.413915,0.2798738 0.603516,0.8242188 0.16537,0.4747799 0.200674,1.1687821 0.07813,1.5175781 C 11.559393,7.1644949 10.954106,7.553755 10.429688,7.484375 10.080552,7.438182 9.78785,7.3118506 9.296875,6.9941406 8.7219996,6.6221376 8.2310612,6.1397164 8.0820312,5.8027344 7.9710703,5.5518314 7.9142759,5.496514 7.6542969,5.375 7.3038869,5.211221 7.1054688,5.1438963 7.1054688,5.1914062 c 0,0.018644 0.047482,0.1305569 0.1074218,0.2480469 0.183364,0.359424 0.3843857,0.5565969 0.6347656,0.6230469 0.7313641,0.194098 1.4645054,1.6537169 1.6621094,3.3105469 0.03343,0.280353 0.071798,0.568095 0.085937,0.6406251 0.023436,0.12019 0.034454,0.124885 0.1210938,0.04687 0.16362,-0.1473282 0.6601626,-0.3123342 1.3671876,-0.4550782 2.652075,-0.5354361 7.084253,-0.5354361 9.736328,0 0.658213,0.132889 1.193797,0.3039481 1.347657,0.4316402 0.10994,0.09125 0.155295,-0.01917 0.197265,-0.4707028 0.0761,-0.818804 0.378069,-1.8823179 0.714844,-2.515625 C 23.318551,6.6023303 23.780667,6.13839 24.0625,6.0625 24.179805,6.030913 24.339379,5.9345294 24.417969,5.8496094 24.596405,5.6568014 24.832969,5.23335 24.787109,5.1875 24.739346,5.139737 24.12972,5.4261932 23.980469,5.5664062 23.912891,5.6298942 23.840612,5.7571894 23.820312,5.8496094 23.715091,6.3286794 22.196528,7.3946619 21.494141,7.4824219 21.110059,7.5304099 20.703285,7.3716161 20.425781,7.0644531 20.176087,6.7880671 20.085097,6.506224 20.091797,6.03125 c 0.0062,-0.444523 0.07874,-0.7521569 0.285156,-1.2167969 0.122912,-0.276679 0.188224,-0.3499914 0.455078,-0.5058593 0.414618,-0.2421731 0.464414,-0.3459988 0.433594,-0.9179688 -0.01375,-0.255135 -0.03939,-0.4788437 -0.05664,-0.4960938 -0.04724,-0.04724 -0.486292,0.2276151 -0.699218,0.4375 -0.272264,0.2683731 -0.309024,0.4064383 -0.195313,0.7226563 0.0891,0.247643 0.08834,0.2796614 0.002,0.5058594 -0.252728,0.661759 -0.98074,1.5822849 -1.53125,1.9355469 -0.345067,0.2214279 -0.858531,0.3559868 -1.185547,0.3105468 -0.818635,-0.113744 -1.326151,-0.8768264 -1.509765,-2.2714844 -0.07858,-0.596889 -0.05496,-0.7066374 0.222656,-1.0078124 0.312039,-0.338523 0.331138,-0.473114 0.121094,-0.890625 -0.09594,-0.190702 -0.236117,-0.4198157 -0.310547,-0.5097657 -0.06039,-0.07299 -0.09671,-0.1114544 -0.128906,-0.1230469 z m 0.359375,7.6445313 c -1.307983,-0.015364 -2.65363,0.051385 -3.861328,0.2089844 -1.405281,0.1833841 -2.7998108,0.5532081 -2.570313,0.6816401 0.573851,0.321145 2.76495,0.697504 4.550781,0.783204 2.766249,0.13275 6.160951,-0.191355 7.314453,-0.699219 L 22.09375,10.488281 21.757812,10.361328 C 20.606878,9.9264453 18.533486,9.6740439 16.353516,9.6484375 Z m 49.138672,1.0000005 c -0.630658,0 -0.945313,0.25681 -0.945313,0.771484 0,0.500176 0.314655,0.75 0.945313,0.75 0.637906,0 0.957031,-0.249824 0.957031,-0.75 0,-0.514674 -0.319125,-0.771484 -0.957031,-0.771484 z m 46.560542,0 c -0.63065,0 -0.94531,0.25681 -0.94531,0.771484 0,0.500176 0.31466,0.75 0.94531,0.75 0.63791,0 0.95704,-0.249824 0.95704,-0.75 0,-0.514674 -0.31913,-0.771484 -0.95704,-0.771484 z m -3.77343,0.314453 v 7.77539 h 1.54492 v -7.77539 z m -17.777347,0.447265 c -0.753889,0 -1.385153,0.16208 -1.892578,0.488282 -0.507425,0.318953 -0.891382,0.760755 -1.152344,1.326171 -0.253712,0.558168 -0.380859,1.193902 -0.380859,1.904297 0,0.587164 0.08327,1.11671 0.25,1.587891 0.173974,0.463932 0.430784,0.843419 0.771484,1.140625 0.347949,0.289957 0.784718,0.467963 1.306641,0.533203 0.529172,0.06524 1.151496,-0.0066 1.869141,-0.216797 v 0.140625 c -0.231966,0.123232 -0.525662,0.227466 -0.88086,0.314453 -0.355198,0.07974 -0.734685,0.137584 -1.140625,0.173828 -0.398691,0.04349 -0.787118,0.06892 -1.164062,0.07617 -0.376945,0.0145 -0.69607,0.0145 -0.957032,0 v 1.294922 c 0.61616,-0.02175 1.13872,-0.02175 1.566407,0 0.434936,0.029 0.807436,0.0684 1.11914,0.119141 0.318953,0.05799 0.612649,0.11332 0.88086,0.164062 0.275459,0.05799 0.555182,0.09739 0.83789,0.119141 0.289958,0.029 0.616069,0.029 0.978516,0 0.369695,-0.02175 0.814014,-0.08406 1.335937,-0.185547 v -1.271484 c -0.449433,0.115983 -0.861336,0.185284 -1.238281,0.207031 -0.376944,0.029 -0.767888,0.029 -1.173828,0 -0.398691,-0.029 -0.856419,-0.07035 -1.371094,-0.121094 v -0.152344 c 0.565417,-0.08699 1.08099,-0.21218 1.544922,-0.378906 0.471181,-0.173974 0.87358,-0.409825 1.207031,-0.707031 0.3407,-0.304455 0.600027,-0.685895 0.78125,-1.142578 0.188473,-0.463932 0.283203,-1.032881 0.283203,-1.707031 0,-0.768387 -0.134133,-1.427597 -0.402343,-1.978516 -0.268211,-0.558168 -0.654684,-0.985997 -1.16211,-1.283203 -0.500176,-0.297207 -1.10601,-0.445313 -1.816406,-0.445313 z m -73.560547,0.123047 c -1.991501,-0.01937 -3.968838,0.04753 -5.957031,0.197266 -0.644766,0.04856 -1.3096696,0.10441 -1.4785156,0.125 l -0.3085938,0.03711 0.2109375,0.123047 c 0.115111,0.06792 0.2089844,0.155599 0.2089844,0.193359 0,0.03776 -0.234741,0.471936 -0.5214844,0.964844 C 8.8089591,13.666735 8.428136,14.32787 8.25,14.642578 c -0.178136,0.314707 -0.3564744,0.572266 -0.3964844,0.572266 -0.04001,0 -0.1398562,0.05769 -0.2226562,0.128906 -0.14841,0.127652 -0.1503044,0.130386 -0.052734,0.279297 0.05444,0.08309 0.1777075,0.207101 0.2734375,0.275391 0.170077,0.121316 0.22203,0.124853 2.2402341,0.158203 1.136016,0.01881 4.812822,0.02658 8.171875,0.01563 l 6.107422,-0.01953 0.234375,-0.138672 c 0.308634,-0.18087 0.453515,-0.394639 0.351562,-0.517578 -0.04043,-0.04876 -0.148124,-0.120726 -0.240234,-0.160156 -0.13773,-0.05896 -0.313298,-0.32738 -0.992188,-1.515625 -0.559802,-0.979807 -0.814012,-1.475995 -0.789062,-1.541015 0.02024,-0.05274 0.12441,-0.141856 0.232422,-0.197266 l 0.197265,-0.09961 -0.384765,-0.03711 c -2.041786,-0.188927 -4.047562,-0.293132 -6.039063,-0.3125 z m 19.574219,0.0293 v 7.175781 h 1.564453 V 16.7168 h 0.957031 c 1.101838,0 1.936537,-0.219361 2.501953,-0.654297 0.572666,-0.434936 0.859376,-1.071233 0.859376,-1.912109 -10e-7,-0.869872 -0.272737,-1.519579 -0.816407,-1.947266 C 41.038361,11.775438 40.302863,11.5625 39.375,11.5625 Z M 115.14062,11.757812 115,12.572266 c -0.029,0.173974 -0.0983,0.294134 -0.20703,0.359375 -0.10149,0.06524 -0.26552,0.09766 -0.49024,0.09766 h -0.57617 l -0.0215,1.228515 h 0.82617 v 2.490235 c 0,0.732142 0.14811,1.268675 0.44531,1.609375 0.29721,0.3407 0.76891,0.511719 1.41406,0.511719 0.15223,0 0.31878,-0.01146 0.5,-0.0332 0.18848,-0.02175 0.39638,-0.06814 0.6211,-0.140626 v -1.457031 c -0.0942,0.06524 -0.20741,0.11163 -0.33789,0.140625 -0.13048,0.029 -0.26015,0.04297 -0.39063,0.04297 -0.25371,0 -0.44317,-0.05785 -0.5664,-0.173828 -0.12323,-0.115983 -0.1836,-0.303492 -0.1836,-0.564453 v -2.38086 h 1.44532 v -1.273437 h -1.44532 V 11.75782 Z m -97.679682,0.05664 c 0.135463,-0.0075 0.35736,-10e-4 0.742187,0.01563 1.234983,0.05345 2.374341,0.147006 2.425781,0.197266 0.02405,0.02348 0.02941,0.08358 0.0098,0.134765 -0.02778,0.07241 -0.109526,0.09375 -0.367188,0.09375 -0.397888,0 -0.676963,0.126551 -0.941406,0.427735 -0.209659,0.238789 -0.517847,0.867189 -0.617187,1.261718 l -0.06641,0.263672 H 16.25589 c -1.314779,0 -2.401022,-0.01798 -2.414062,-0.04101 -0.01304,-0.02303 -0.0899,-0.247079 -0.171875,-0.496094 -0.229287,-0.696519 -0.567932,-1.164229 -0.966797,-1.337891 -0.0988,-0.04301 -0.317555,-0.07813 -0.486328,-0.07813 -0.250481,0 -0.318058,-0.02147 -0.367188,-0.113281 -0.04548,-0.08497 -0.04281,-0.118099 0.01172,-0.136719 0.11171,-0.03814 1.426041,-0.132498 2.417969,-0.173828 0.787561,-0.03281 0.90229,-0.02734 0.96875,0.05274 0.112956,0.136104 1.852093,0.136188 1.988281,0 0.04027,-0.04027 0.08915,-0.06279 0.22461,-0.07031 z m 5.08789,0.759766 0.462891,0.771484 c 0.438682,0.730404 0.646108,1.131235 0.605469,1.171875 -0.03669,0.03669 -0.750599,-0.272898 -0.980469,-0.425781 -0.279452,-0.185858 -0.29531,-0.149701 -0.07227,0.158203 0.168429,0.232509 0.410381,0.434421 0.695313,0.576172 0.22229,0.110588 0.368889,0.36744 0.36914,0.652344 v 0.238281 h -7.34375 c -8.1157891,0 -7.4442835,0.03274 -7.3710935,-0.357422 0.049146,-0.26197 0.2048252,-0.44012 0.5566406,-0.638672 0.301404,-0.170102 0.6164759,-0.494156 0.6660159,-0.683594 0.02318,-0.08865 2.25e-4,-0.08456 -0.1777346,0.0332 -0.2339838,0.154844 -0.8553043,0.417969 -0.9882813,0.417969 -0.104985,0 0.227216,-0.646164 0.7402344,-1.441406 0.3603765,-0.558629 0.3282255,-0.567421 0.7011715,0.199219 0.262604,0.53982 0.04426,0.493575 1.771485,0.376953 1.37517,-0.09285 1.282261,-0.120977 1.43164,0.417969 0.04681,0.168867 0.09186,0.333574 0.101563,0.365234 0.0097,0.03166 0.159087,0.10173 0.332031,0.15625 0.400367,0.126205 0.734653,0.432656 0.789063,0.722656 l 0.03906,0.207032 h 1.361328 1.361328 v -0.125 c 5.16e-4,-0.31055 0.373775,-0.661518 0.882813,-0.830079 0.229533,-0.07601 0.245528,-0.09748 0.367187,-0.458984 0.07016,-0.208488 0.163942,-0.414091 0.207032,-0.457031 0.06711,-0.0669 0.249145,-0.06683 1.277343,0.002 1.76047,0.117762 1.559075,0.156229 1.773438,-0.320313 0.100117,-0.222564 0.239587,-0.477496 0.310547,-0.566406 z m 67.910156,0.107422 c 0.608911,0 1.069156,0.217407 1.38086,0.652343 0.311704,0.427687 0.466797,1.054481 0.466797,1.88086 0,1.623761 -0.598848,2.435547 -1.794922,2.435547 -1.232319,0 -1.847657,-0.825759 -1.847657,-2.478516 10e-7,-0.811881 0.148107,-1.427218 0.445313,-1.847656 0.304455,-0.427687 0.755197,-0.642578 1.349609,-0.642578 z m -52.378906,0.08789 h 1.251953 c 0.507426,0 0.879926,0.115691 1.119141,0.347657 0.246464,0.224716 0.36914,0.553345 0.36914,0.988281 0,0.492927 -0.129663,0.848938 -0.390624,1.066406 -0.260962,0.210219 -0.651905,0.314453 -1.173829,0.314453 h -1.175781 z m 12.560547,0.107422 c -0.601661,0 -1.117235,0.134133 -1.544922,0.402344 -0.427687,0.260961 -0.753799,0.628429 -0.978515,1.099609 -0.224717,0.471181 -0.337891,1.007714 -0.337891,1.609375 0,0.920615 0.26128,1.6332 0.783203,2.140625 0.521923,0.507426 1.250434,0.761719 2.185547,0.761719 0.775636,0 1.367497,-0.159563 1.773437,-0.478516 0.41319,-0.326202 0.681456,-0.754031 0.804688,-1.283203 l -1.359375,-0.292968 c -0.04349,0.144978 -0.108325,0.288615 -0.195313,0.433593 -0.08699,0.13773 -0.214134,0.255373 -0.380859,0.34961 -0.159477,0.08699 -0.374368,0.128906 -0.642578,0.128906 -0.413189,0 -0.753274,-0.122677 -1.021485,-0.369141 -0.260961,-0.253712 -0.409067,-0.644656 -0.445312,-1.173828 l 3.990234,-0.0332 c 0.06524,-1.058344 -0.142664,-1.87013 -0.621093,-2.435547 -0.471181,-0.572666 -1.139894,-0.859375 -2.009766,-0.859375 z m 7.066406,0 c -0.935112,0 -1.547933,0.619808 -1.83789,1.859375 h -0.205079 v -1.707031 h -1.251953 v 2.054687 3.654297 h 1.566407 v -2.630859 c 0.0145,-0.536421 0.123201,-0.987163 0.326172,-1.34961 0.20297,-0.362446 0.489679,-0.542968 0.859374,-0.542968 0.630658,0 0.945313,0.605834 0.945313,1.816406 v 2.707031 h 1.533203 v -2.642578 c 0.0145,-0.54367 0.127672,-0.992458 0.337891,-1.347656 0.210219,-0.355198 0.496928,-0.533203 0.859375,-0.533203 0.623408,0 0.933594,0.591861 0.933594,1.773437 v 2.75 h 1.566406 v -2.947265 c 0,-0.95686 -0.159563,-1.680901 -0.478516,-2.173828 -0.311704,-0.492928 -0.783405,-0.740235 -1.414062,-0.740235 -0.471181,0 -0.876097,0.152576 -1.216797,0.457031 -0.333451,0.297207 -0.580758,0.764438 -0.740235,1.402344 h -0.173828 c -0.05799,-0.579915 -0.213084,-1.033173 -0.466797,-1.359375 -0.253712,-0.333451 -0.635152,-0.5 -1.142578,-0.5 z m 20.0625,0 c -0.935112,0 -1.547933,0.619808 -1.83789,1.859375 h -0.207032 v -1.707031 h -1.25 v 2.054687 3.654297 h 1.564453 v -2.630859 c 0.0145,-0.536421 0.123202,-0.987163 0.326172,-1.34961 0.202971,-0.362446 0.48968,-0.542968 0.859375,-0.542968 0.630658,0 0.947266,0.605834 0.947266,1.816406 v 2.707031 h 1.533203 v -2.642578 c 0.0145,-0.54367 0.125719,-0.992458 0.335938,-1.347656 0.210219,-0.355198 0.496928,-0.533203 0.859375,-0.533203 0.623408,0 0.935547,0.591861 0.935547,1.773437 v 2.75 h 1.564453 v -2.947265 c 0,-0.95686 -0.159563,-1.680901 -0.478516,-2.173828 -0.311704,-0.492928 -0.781452,-0.740235 -1.412109,-0.740235 -0.471181,0 -0.878051,0.152576 -1.21875,0.457031 -0.333451,0.297207 -0.578805,0.764438 -0.738282,1.402344 h -0.173828 c -0.05799,-0.579915 -0.215037,-1.033173 -0.46875,-1.359375 -0.253712,-0.333451 -0.633199,-0.5 -1.140625,-0.5 z m 26.726559,0 c -0.70314,0 -1.29053,0.150059 -1.76171,0.447266 -0.47119,0.289957 -0.79478,0.727289 -0.96876,1.314453 l 1.38086,0.423828 c 0.0797,-0.333451 0.23931,-0.578805 0.47852,-0.738281 0.24646,-0.166726 0.52619,-0.25 0.83789,-0.25 0.3117,0 0.54057,0.07182 0.68555,0.216797 0.14498,0.144978 0.21679,0.318514 0.21679,0.521484 0,0.217468 -0.0833,0.358588 -0.25,0.423828 -0.15947,0.06524 -0.41377,0.123086 -0.76171,0.173828 -0.57992,0.08699 -1.0751,0.195691 -1.48829,0.326172 -0.40594,0.123232 -0.71556,0.305707 -0.92578,0.544922 -0.21022,0.239215 -0.31445,0.565326 -0.31445,0.978516 0,0.529172 0.15258,0.934088 0.45703,1.216796 0.30446,0.27546 0.6954,0.414063 1.17383,0.414063 0.51467,0 0.94697,-0.14559 1.29492,-0.435547 0.3552,-0.289957 0.60754,-0.641498 0.75977,-1.054687 h 0.19531 c 0.0145,0.246463 0.0329,0.486784 0.0547,0.71875 0.029,0.231965 0.0589,0.437917 0.0879,0.61914 h 1.38086 c -0.0797,-0.782885 -0.11914,-1.566724 -0.11914,-2.349609 v -0.978516 c 0,-0.869872 -0.19645,-1.506169 -0.58789,-1.912109 -0.39145,-0.413189 -0.9998,-0.621094 -1.82618,-0.621094 z m -57.738278,0.02149 c -0.572665,0 -1.003011,0.168502 -1.292968,0.501953 -0.282709,0.333451 -0.465184,0.858527 -0.544922,1.576171 h -0.207031 l -0.0098,-1.947265 h -1.294922 v 2.947265 2.761719 h 1.578125 v -2.630859 c 0.07249,-0.521923 0.227582,-0.924323 0.466797,-1.207031 0.246464,-0.289958 0.584032,-0.435547 1.011719,-0.435547 0.101485,0 0.217175,0.01146 0.347656,0.0332 0.130481,0.02175 0.250641,0.05668 0.359375,0.107422 l 0.06445,-1.66211 c -0.101485,-0.02175 -0.191746,-0.0332 -0.271484,-0.0332 -0.07249,-0.0072 -0.141791,-0.01172 -0.207032,-0.01172 z m 17.941407,0.130859 v 5.708984 h 1.566406 v -5.708984 z m 2.935547,0 v 3.109375 c 0,1.83398 0.670666,2.751953 2.011718,2.751953 0.521924,0 0.93131,-0.152576 1.228516,-0.457031 0.304455,-0.304455 0.535836,-0.797116 0.695312,-1.478516 h 0.197266 l 0.0098,1.783203 h 1.261718 V 16.412113 13.029301 H 71.47269 v 2.556641 c -0.0072,0.376944 -0.06062,0.717029 -0.162109,1.021484 -0.09424,0.304455 -0.235356,0.547292 -0.423828,0.728516 -0.181224,0.173974 -0.407571,0.259765 -0.675781,0.259765 -0.674151,0 -1.009766,-0.550506 -1.009766,-1.652344 v -2.914062 z m 27.445312,0 v 3.109375 c 0,1.83398 0.668713,2.751953 2.009766,2.751953 0.521923,0 0.933262,-0.152576 1.230468,-0.457031 0.304456,-0.304455 0.535836,-0.797116 0.695313,-1.478516 h 0.195313 l 0.01172,1.783203 h 1.259762 v -2.326172 -3.382812 h -1.564449 v 2.556641 c -0.0072,0.376944 -0.06258,0.717029 -0.164063,1.021484 -0.09424,0.304455 -0.235356,0.547292 -0.423828,0.728516 -0.181223,0.173974 -0.405617,0.259765 -0.673828,0.259765 -0.674151,0 -1.011719,-0.550506 -1.011719,-1.652344 v -2.914062 z m 16.179692,0 v 5.708984 h 1.56445 v -5.708984 z m 7.28515,0 v 2.392578 c 0,1.877474 0.62931,2.816406 1.89063,2.816406 0.50017,0 0.90704,-0.159562 1.21875,-0.478515 0.31895,-0.326202 0.53189,-0.851279 0.64062,-1.576172 h 0.24024 l -0.0664,0.988281 c -0.0362,0.732142 -0.19832,1.275662 -0.48828,1.630859 -0.28271,0.355198 -0.71501,0.533204 -1.29492,0.533204 -0.3407,0 -0.68526,-0.06036 -1.03321,-0.183594 -0.34795,-0.115983 -0.63717,-0.293989 -0.86914,-0.533203 l -0.44531,1.33789 c 0.27546,0.260962 0.6365,0.45294 1.08594,0.576172 0.44943,0.123232 0.89319,0.183594 1.32812,0.183594 1.97896,0 2.9668,-1.163327 2.9668,-3.490235 v -4.197265 h -1.56445 v 1.892578 c -0.007,0.637906 -0.11344,1.135037 -0.31641,1.490234 -0.19572,0.355198 -0.46399,0.53125 -0.80469,0.53125 -0.31895,0 -0.55285,-0.148106 -0.70508,-0.445312 -0.14497,-0.297206 -0.21874,-0.782881 -0.21874,-1.457031 v -2.011719 z m -67.882811,1.066406 c 0.304456,0 0.568252,0.101717 0.792969,0.304688 0.231966,0.195721 0.359113,0.50339 0.38086,0.923828 l -2.511719,0.0332 c 0.08699,-0.40594 0.24655,-0.718079 0.478515,-0.935547 0.231966,-0.217468 0.518676,-0.326172 0.859375,-0.326172 z M 10.625,14.488281 10.53516,14.623047 c -0.06923,0.10565 -0.07538,0.162193 -0.02734,0.251953 0.05982,0.111791 0.103945,0.115234 1.416016,0.115234 1.422364,0 1.488281,-0.01 1.488281,-0.25 0,-0.239577 -0.06726,-0.251953 -1.460937,-0.251953 z m 9.917969,0 c -1.425695,0 -1.492188,0.01186 -1.492188,0.251953 0,0.06448 0.02957,0.146754 0.06641,0.183594 0.04842,0.04842 0.442762,0.06641 1.421874,0.06641 1.324277,0 1.355859,-0.0031 1.417969,-0.11914 0.04616,-0.08617 0.04773,-0.15382 0.0039,-0.25 l -0.06055,-0.132813 z m 84.843751,1.455078 0.0117,0.71875 c -0.14498,0.355198 -0.35987,0.625981 -0.64258,0.814453 -0.28271,0.188473 -0.56048,0.283204 -0.83594,0.283204 -0.23196,0 -0.42143,-0.06483 -0.5664,-0.195313 -0.14498,-0.130481 -0.2168,-0.308486 -0.2168,-0.533203 0,-0.231966 0.0718,-0.402985 0.2168,-0.511719 0.15222,-0.108734 0.3442,-0.185022 0.57617,-0.228515 0.23921,-0.05074 0.48652,-0.09713 0.74023,-0.140625 0.26096,-0.04349 0.49933,-0.112795 0.7168,-0.207032 z m -98.5605481,0.386719 0.1699219,0.277344 c 0.093649,0.1522 0.2825498,0.401897 0.4199218,0.554687 0.214219,0.238264 0.3278308,0.307365 0.7929688,0.482422 1.5971034,0.601075 2.6818016,1.289108 2.9433596,1.869141 0.05515,0.122299 0.113846,0.210372 0.128906,0.195312 0.05755,-0.05755 -0.332274,-0.740624 -0.587891,-1.03125 C 10.196856,18.113229 9.4354202,17.702055 7.8867188,17.162109 7.5947227,17.060306 7.4560632,16.967109 7.1757812,16.683594 Z M 25.400391,16.46875 c -0.01786,0.01129 -0.05735,0.05168 -0.123047,0.126953 -0.271105,0.31062 -0.544206,0.46704 -1.257813,0.714844 -1.186136,0.41189 -1.8189,0.775597 -2.359375,1.359375 -0.268561,0.290077 -0.657597,0.945279 -0.654297,1.101562 5.56e-4,0.02631 0.07593,-0.08887 0.167969,-0.255859 0.216771,-0.393286 0.269405,-0.447809 0.746094,-0.777344 0.521059,-0.360208 1.371803,-0.787046 2.070312,-1.039062 0.688816,-0.248519 0.742776,-0.283347 1.048828,-0.683594 0.268072,-0.350575 0.414896,-0.580731 0.361329,-0.546875 z m 5.048828,0.681641 c -0.01256,0.0043 -0.02522,0.01942 -0.04102,0.04102 -0.06022,0.08235 -0.04711,0.155555 0.08594,0.46875 0.29051,0.683843 0.357596,1.033371 0.357421,1.851563 -2.8e-4,1.078871 -0.191851,1.778656 -0.707031,2.568359 -0.406522,0.623144 -0.758229,1.381311 -0.855469,1.847656 -0.06929,0.332335 -0.07412,0.498112 -0.02734,0.845704 0.08798,0.653746 0.335104,1.040543 0.787109,1.236328 0.245126,0.10616 0.25066,0.107462 0.44336,0.0078 0.219241,-0.113374 0.374073,-0.384774 0.513671,-0.902344 0.102766,-0.381017 0.121132,-0.640113 0.144532,-1.964843 0.04621,-2.61558 -0.125726,-4.381729 -0.554688,-5.699219 -0.07727,-0.237322 -0.108794,-0.313809 -0.146484,-0.300781 z m -28.5703128,0.04687 c -0.055637,0.0098 -0.1072956,0.129915 -0.2089843,0.445312 -0.2512879,0.779389 -0.411415,1.992817 -0.484375,3.65625 -0.058893,1.342653 -0.00261,3.191253 0.1152343,3.740234 0.1041879,0.485357 0.3076211,0.866203 0.515625,0.96875 0.099243,0.04893 0.1824469,0.08915 0.1855469,0.08984 0.057362,0.01296 0.4329128,-0.160617 0.5742188,-0.265625 C 3.0121189,25.508051 3.2219632,24.4747 3.0039062,23.724609 2.8873933,23.323819 2.5473745,22.640331 2.1796875,22.066406 1.6935438,21.307581 1.4674249,20.513166 1.4667969,19.558594 1.4663289,18.845162 1.5721988,18.295808 1.8242188,17.712891 1.9748997,17.364373 1.99658,17.269743 1.9375,17.220703 c -0.021567,-0.0179 -0.040048,-0.0267 -0.058594,-0.02344 z m 1.2519532,1.769531 c -0.1386917,8.28e-4 -0.1608288,0.156831 -0.1953125,0.908203 -0.048513,1.057167 0.1944042,1.990255 0.8476562,3.248047 0.406044,0.78181 0.423676,0.949617 0.171875,1.728515 -0.226435,0.700433 -0.2380265,0.805812 -0.1015625,0.925782 0.459684,0.404121 1.7082569,0.664532 3.6699219,0.763672 1.237676,0.06259 1.2343535,0.06119 1.6953125,0.0078 0.3264674,-0.0378 0.4399232,-0.07664 0.5507812,-0.1875 0.1197701,-0.11977 0.1357626,-0.169272 0.1015626,-0.351562 C 9.7858317,25.555277 8.5525679,24.537575 7.3417969,23.923828 7.0879849,23.795169 6.5140053,23.567918 6.0664062,23.417969 5.6188072,23.26802 5.1471053,23.083382 5.0195312,23.007812 4.3965373,22.638762 3.531372,21.426389 3.53125,20.921875 c -2e-5,-0.09979 0.011791,-0.181641 0.025391,-0.181641 0.013596,0 0.1074444,0.04984 0.2089844,0.109375 0.569134,0.333643 2.3523239,0.702106 4.3261719,0.896485 0.521779,0.05138 0.6493247,0.0495 0.7773437,-0.01758 L 9.0234375,21.648438 8.6367188,21.365234 C 8.1418287,21.001833 6.9527472,20.386711 5.9726562,19.988281 5.0759523,19.623751 3.4181486,19.018789 3.1972656,18.974609 c -0.024919,-0.005 -0.046593,-0.0079 -0.066406,-0.0078 z m 26.0546876,0.01563 c -0.153368,0.0016 -0.469149,0.122946 -1.154297,0.367187 -2.037105,0.726186 -3.667468,1.489333 -4.382812,2.050782 -0.39392,0.309178 -0.347606,0.377958 0.248046,0.361328 1.452147,-0.04055 4.196271,-0.583642 4.736328,-0.9375 0.185834,-0.121765 0.205436,-0.107634 0.171876,0.142578 -0.04415,0.329182 -0.289353,0.777456 -0.710938,1.298828 -0.515145,0.637076 -0.793134,0.814982 -1.755859,1.125 -0.440236,0.141766 -1.035437,0.376823 -1.322266,0.521484 -1.125293,0.567538 -2.316989,1.49055 -2.527344,1.957032 -0.186378,0.413313 -0.02525,0.6112 0.554688,0.68164 0.577211,0.07011 2.957571,-0.05676 3.816406,-0.203125 0.863957,-0.147243 1.553305,-0.409974 1.703125,-0.65039 0.04613,-0.07402 0.0093,-0.247072 -0.15625,-0.75 -0.282251,-0.857582 -0.267543,-0.982543 0.210938,-1.97461 0.714192,-1.480797 0.932927,-2.540877 0.751953,-3.636718 -0.03912,-0.236873 -0.03023,-0.355076 -0.183594,-0.353516 z M 4.1953125,19.457031 c 0.02678,0 0.063894,0.102886 0.083984,0.228516 0.105059,0.657009 0.6029864,1.094923 1.5683593,1.380859 0.46007,0.13627 0.9353792,0.215527 2.0332032,0.337891 0.526576,0.05869 0.813065,0.114516 0.828125,0.160156 0.027209,0.08248 0.072997,0.08472 -1.1015625,-0.04687 C 5.4648969,21.277539 4.5779491,20.932631 4.2519531,20.214844 4.1462831,19.98217 4.1072225,19.457031 4.1953125,19.457031 Z m 23.8925785,0 c 0.154689,0 0.08197,0.618132 -0.109375,0.927735 -0.362423,0.586412 -1.297045,0.912694 -3.177735,1.107422 -0.475898,0.04928 -0.935101,0.09969 -1.019531,0.113281 -0.104836,0.01688 -0.152344,0.0015 -0.152344,-0.05078 0,-0.05559 0.126361,-0.08788 0.460938,-0.115235 1.291853,-0.105617 2.534362,-0.349919 3.019531,-0.595703 0.559473,-0.283428 0.926434,-0.760946 0.927734,-1.205078 3e-4,-0.09979 0.02366,-0.181641 0.05078,-0.181641 z m -17.5625,3.695313 c -0.185189,0.0027 -0.269369,0.02273 -0.359375,0.06055 -0.2199896,0.09244 -0.3977942,0.318359 -0.2500004,0.318359 0.044214,0 0.4024894,0.03721 0.7968754,0.08203 0.394385,0.04482 1.241017,0.119276 1.880859,0.166016 1.156605,0.08448 1.166382,0.08714 1.675781,0.310547 0.281803,0.123589 0.75184,0.360727 1.042969,0.527344 0.291129,0.166618 0.592672,0.30464 0.669922,0.30664 0.07725,0.002 0.314863,-0.09876 0.529297,-0.224609 0.674792,-0.396036 1.359234,-0.722285 1.689453,-0.802735 0.175214,-0.04268 0.771562,-0.105111 1.324219,-0.138672 0.552657,-0.03356 1.373121,-0.08943 1.824218,-0.125 0.751536,-0.05926 0.817142,-0.07314 0.769532,-0.162109 -0.07147,-0.133544 -0.506616,-0.290175 -0.824219,-0.296875 -0.144654,-0.0031 -1.071142,0.0293 -2.058594,0.07227 -2.002736,0.08715 -5.839829,0.0614 -7.75,-0.05273 -0.490563,-0.02931 -0.775749,-0.04373 -0.960937,-0.04102 z m -0.9121098,1.740234 c -0.079544,-0.0039 -0.1126287,0.01497 -0.1523437,0.05469 -0.079429,0.07943 -0.071836,0.09243 0.070312,0.146484 0.4765155,0.18117 1.3661635,0.262171 3.7382815,0.337891 0.980615,0.0313 1.797212,0.07138 1.814453,0.08984 0.04123,0.04416 3.445255,-0.02363 4.693359,-0.09375 1.500476,-0.0843 2.465114,-0.223005 2.736328,-0.390625 0.173971,-0.10752 -0.02451,-0.123496 -0.433593,-0.03516 -1.116579,0.24113 -3.341709,0.338595 -6.769531,0.296875 -2.925199,-0.03561 -4.43329,-0.126856 -5.265625,-0.322266 -0.2248116,-0.05278 -0.3520972,-0.08006 -0.4316413,-0.08398 z m 21.1874998,1.31836 c -0.01563,-10e-7 -0.259248,0.09971 -0.542969,0.220703 -1.56553,0.667594 -4.738364,1.278461 -8.136718,1.566406 -3.484131,0.295219 -8.758724,0.293463 -12.2246096,-0.002 C 6.5275,27.708938 3.5059973,27.136103 1.9277344,26.484375 1.1840397,26.177287 1.1875,26.178016 1.1875,26.304688 c 0,0.05885 0.029566,0.136988 0.066406,0.173828 0.100271,0.100272 -0.221874,0.08868 -0.42187495,-0.01563 -0.218717,-0.114073 -0.24640662,-0.10845 -0.43164063,0.08984 -0.10348598,0.110778 -0.19527312,0.160422 -0.25195312,0.138672 -0.22411312,-0.086 -0.18951487,0.05736 0.0664063,0.28125 0.271081,0.23719 0.2730615,0.241088 0.1171875,0.242188 -0.44225515,0.0032 0.31567955,0.439763 1.3476562,0.77539 2.1864388,0.71109 5.6582497,1.176974 10.3925787,1.396485 2.847804,0.132041 7.93339,0.04535 10.916015,-0.1875 3.901736,-0.304598 7.193376,-0.956628 8.486328,-1.679688 0.368345,-0.20599 0.399354,-0.27734 0.136719,-0.3125 -0.131611,-0.01762 -0.124959,-0.03059 0.123047,-0.214843 0.29522,-0.219331 0.355828,-0.368477 0.125,-0.310547 -0.114527,0.02875 -0.177264,1.01e-4 -0.310547,-0.142579 L 31.382812,26.36132 31.1875,26.45312 c -0.106926,0.05099 -0.273321,0.09375 -0.369141,0.09375 -0.16525,0 -0.167708,-0.0067 -0.08008,-0.103516 0.08774,-0.09695 0.12361,-0.232421 0.0625,-0.232421 z" /></svg>
