<?xml version="1.0" encoding="UTF-8" standalone="no"?>
<!-- Created with Inkscape (http://www.inkscape.org/) -->

<svg
   width="32"
   height="32"
   viewBox="0 0 32 32"
   version="1.1"
   id="svg1"
   xml:space="preserve"
   xmlns:xlink="http://www.w3.org/1999/xlink"
   xmlns="http://www.w3.org/2000/svg"
   xmlns:svg="http://www.w3.org/2000/svg"><defs
     id="defs1"><linearGradient
       id="linearGradient3"><stop
         style="stop-color:#ffffff;stop-opacity:1;"
         offset="0"
         id="stop3" /><stop
         style="stop-color:#b2b23a;stop-opacity:1;"
         offset="1"
         id="stop4" /></linearGradient><linearGradient
       xlink:href="#linearGradient3"
       id="linearGradient4"
       x1="-3.4560088e-10"
       y1="15.724346"
       x2="31.999996"
       y2="15.724346"
       gradientUnits="userSpaceOnUse" /></defs><path
     style="fill:url(#linearGradient4);fill-opacity:1;stroke:none;stroke-width:0.17445;stroke-opacity:1"
     d="M 12.072896,29.387044 C 7.3385676,29.167533 3.8658356,28.700573 1.6793969,27.989483 0.6474202,27.653856 -0.11098495,27.218098 0.3312702,27.214888 c 0.155874,-0.0011 0.154179,-0.0046 -0.116902,-0.24179 -0.25592112,-0.22389 -0.28907312,-0.367616 -0.06496,-0.281616 0.05668,0.02175 0.14724404,-0.0286 0.25073003,-0.139378 0.185234,-0.198293 0.2131,-0.204103 0.431817,-0.09003 0.20000097,0.104308 0.52253987,0.117362 0.42226887,0.01709 -0.03684,-0.03684 -0.06699,-0.115136 -0.06699,-0.173983 0,-0.126671 -0.0037,-0.127561 0.7399947,0.179527 1.5782629,0.651728 4.5995489,1.225105 7.9685333,1.512261 3.4658859,0.295416 8.7413019,0.295568 12.2254329,3.49e-4 3.398354,-0.287945 6.570288,-0.898537 8.135819,-1.566131 0.283721,-0.120988 0.528648,-0.219978 0.544282,-0.219978 0.06111,0 0.02378,0.135905 -0.06396,0.232856 -0.08763,0.09683 -0.08341,0.102087 0.08184,0.102087 0.09582,0 0.261714,-0.04172 0.36864,-0.09271 l 0.194412,-0.09271 0.166674,0.178427 c 0.133283,0.142679 0.195371,0.171225 0.309898,0.14248 0.230828,-0.05793 0.171102,0.09177 -0.124118,0.311101 -0.248006,0.184254 -0.255037,0.196447 -0.123426,0.214066 0.262635,0.03516 0.231213,0.10684 -0.137132,0.31283 -1.292952,0.72306 -4.583795,1.374083 -8.485531,1.678681 -2.982625,0.232845 -8.067897,0.320767 -10.915701,0.188726 z M 7.5232476,26.54024 c -1.961665,-0.09914 -3.210737,-0.358748 -3.670421,-0.762869 -0.136464,-0.11997 -0.124968,-0.224799 0.101467,-0.925231 0.251801,-0.778899 0.23515,-0.947385 -0.170894,-1.729195 -0.653252,-1.257792 -0.896926,-2.190584 -0.848413,-3.247751 0.03941,-0.858711 0.06347,-0.941244 0.262818,-0.901374 0.220883,0.04418 1.87788,0.650149 2.774584,1.014679 0.980091,0.39843 2.170407,1.013231 2.665297,1.376632 l 0.385052,0.282746 -0.153208,0.08028 c -0.128019,0.06708 -0.255878,0.07016 -0.777657,0.01878 -1.973848,-0.194379 -3.756839,-0.564596 -4.325973,-0.898239 -0.10154,-0.05953 -0.195743,-0.108229 -0.209339,-0.108229 -0.0136,0 -0.0247,0.08164 -0.02468,0.181428 1.22e-4,0.504514 0.864953,1.716944 1.487947,2.085994 0.127574,0.07557 0.59817,0.26009 1.045769,0.410039 0.447599,0.149949 1.02148,0.377901 1.275292,0.50656 1.210771,0.613747 2.4441624,1.630352 2.5294244,2.084841 0.0342,0.18229 0.01988,0.232819 -0.09989,0.352589 -0.110858,0.110857 -0.225051,0.149676 -0.5515184,0.18748 -0.460959,0.05338 -0.457988,0.05339 -1.695664,-0.0092 z m 1.1865,-4.976373 c -0.01506,-0.04564 -0.301478,-0.100817 -0.828054,-0.15951 -1.097824,-0.122364 -1.573093,-0.201265 -2.033163,-0.337535 -0.965373,-0.285936 -1.463665,-0.72488 -1.568724,-1.381889 -0.02009,-0.12563 -0.05844,-0.228418 -0.08522,-0.228418 -0.08809,0 -0.04836,0.525653 0.05731,0.758327 0.325996,0.717787 1.212554,1.061785 3.355079,1.301824 1.17456,0.131592 1.129973,0.129684 1.102764,0.0472 z m 14.3325434,4.986196 c -0.579938,-0.07044 -0.741028,-0.268446 -0.55465,-0.681759 0.210355,-0.466482 1.402286,-1.389241 2.527579,-1.956779 0.286829,-0.144661 0.8817,-0.37901 1.321936,-0.520776 0.962725,-0.310018 1.241482,-0.488661 1.756627,-1.125737 0.421585,-0.521372 0.666395,-0.968456 0.710547,-1.297638 0.03356,-0.250212 0.01519,-0.265706 -0.170643,-0.143941 -0.540057,0.353858 -3.284689,0.897232 -4.736836,0.937783 -0.595652,0.01663 -0.642542,-0.05136 -0.248622,-0.360538 0.715344,-0.561449 2.346197,-1.324386 4.383302,-2.050572 1.370296,-0.488483 1.259501,-0.487355 1.337738,-0.01361 0.180974,1.095841 -0.03845,2.15613 -0.752643,3.636927 -0.47848,0.992067 -0.49167,1.116401 -0.209419,1.973983 0.165526,0.502928 0.201136,0.675002 0.155007,0.749024 -0.14982,0.240416 -0.838193,0.503644 -1.70215,0.650887 -0.858835,0.146369 -3.240562,0.272855 -3.817773,0.202748 z m 1.758453,-5.058216 c 1.88069,-0.194727 2.814692,-0.519982 3.177115,-1.106394 0.191345,-0.309603 0.264673,-0.928938 0.109984,-0.928938 -0.02712,0 -0.04956,0.08164 -0.04986,0.181427 -0.0013,0.444132 -0.369323,0.921536 -0.928796,1.204964 -0.485169,0.245784 -1.728346,0.491619 -3.020199,0.597236 -0.334577,0.02735 -0.460548,0.05859 -0.460548,0.114183 0,0.05226 0.04868,0.0687 0.153516,0.05182 0.08443,-0.01359 0.542888,-0.06502 1.018786,-0.114299 z M 1.8162348,26.008053 C 1.6082309,25.905505 1.405781,25.52426 1.3015931,25.038904 c -0.117846,-0.548982 -0.175456,-2.397548 -0.116563,-3.740201 0.07296,-1.663433 0.2340569,-2.877076 0.4853448,-3.656465 0.1355849,-0.42053 0.1814099,-0.492604 0.2676759,-0.421009 0.05908,0.04904 0.03729,0.143636 -0.113391,0.492154 -0.2520199,0.582917 -0.3583808,1.131041 -0.3579128,1.844473 6.28e-4,0.954572 0.2265039,1.749647 0.7126476,2.508472 0.367687,0.573925 0.70736,1.2577 0.823873,1.65849 0.218057,0.750091 0.0083,1.783859 -0.427647,2.107839 -0.141306,0.105008 -0.5159509,0.278591 -0.5733129,0.26563 -0.0031,-6.98e-4 -0.08683,-0.0413 -0.1860729,-0.09023 z m 28.2319552,0.0025 c -0.452005,-0.195785 -0.698388,-0.583407 -0.786368,-1.237153 -0.04678,-0.347591 -0.04127,-0.513978 0.02802,-0.846313 0.09724,-0.466345 0.447426,-1.22371 0.853948,-1.846854 0.51518,-0.789703 0.708094,-1.489028 0.708375,-2.567899 1.74e-4,-0.818192 -0.06734,-1.167708 -0.35785,-1.851551 -0.133051,-0.313195 -0.146777,-0.387736 -0.08656,-0.47009 0.06318,-0.0864 0.08525,-0.05586 0.188272,0.260569 0.428962,1.31749 0.6008,3.083227 0.554594,5.698807 -0.0234,1.32473 -0.04257,1.583857 -0.145336,1.964874 -0.139598,0.51757 -0.293885,0.788854 -0.513127,0.902228 -0.1927,0.09965 -0.198848,0.09956 -0.443974,-0.0066 z M 15.083957,25.521505 c -0.01724,-0.01846 -0.833662,-0.05918 -1.814277,-0.09048 -2.372118,-0.07572 -3.262588,-0.156018 -3.739103,-0.337188 -0.142149,-0.05405 -0.148509,-0.06758 -0.06908,-0.147009 0.07943,-0.07943 0.13308,-0.07678 0.582702,0.02878 0.832335,0.195409 2.341285,0.288179 5.266484,0.323784 3.427823,0.04172 5.65221,-0.05588 6.768788,-0.29701 0.409088,-0.08834 0.608241,-0.0721 0.434271,0.03542 -0.271214,0.16762 -1.236672,0.304901 -2.737147,0.389202 -1.248104,0.07012 -4.651411,0.13866 -4.692637,0.0945 z m 0.227727,-0.904582 c -0.291129,-0.166617 -0.759892,-0.40406 -1.041695,-0.527649 -0.509399,-0.223405 -0.519114,-0.2252 -1.675719,-0.30968 -0.639842,-0.04674 -1.486028,-0.121641 -1.880413,-0.166457 -0.394386,-0.04482 -0.7532412,-0.08148 -0.7974552,-0.08148 -0.1477938,0 0.02903,-0.226383 0.2490192,-0.31882 0.180012,-0.07564 0.340198,-0.07798 1.321324,-0.01936 1.910171,0.114138 5.747782,0.140605 7.750518,0.05345 0.987452,-0.04297 1.913722,-0.07563 2.058376,-0.07258 0.317603,0.0067 0.751499,0.163103 0.82297,0.296647 0.04761,0.08897 -0.01668,0.102504 -0.768216,0.161765 -0.451097,0.03557 -1.27235,0.09213 -1.825007,0.125691 -0.552657,0.03356 -1.148186,0.09595 -1.3234,0.138632 -0.330219,0.08045 -1.015413,0.405312 -1.690205,0.801348 -0.214434,0.125852 -0.453081,0.227159 -0.530327,0.225128 -0.07725,-0.002 -0.378641,-0.140017 -0.66977,-0.306635 z m 5.694047,-4.845401 c -0.0033,-0.156283 0.386162,-0.811655 0.654723,-1.101732 0.540475,-0.583778 1.17262,-0.948311 2.358756,-1.360201 0.713607,-0.247804 0.986806,-0.402733 1.257911,-0.713353 0.262783,-0.301085 0.118643,-0.04774 -0.238786,0.419694 -0.306052,0.400247 -0.358503,0.434452 -1.047319,0.682971 -0.698509,0.252016 -1.550503,0.679718 -2.071562,1.039926 -0.476689,0.329535 -0.528594,0.383637 -0.745365,0.776923 -0.09204,0.166988 -0.167802,0.282086 -0.168358,0.255772 z M 11.152736,19.514407 C 10.891178,18.934374 9.806154,18.244882 8.2090506,17.643807 7.7439126,17.46875 7.6311796,17.400164 7.4169606,17.1619 7.2795886,17.00911 7.0905716,16.759573 6.9969226,16.607373 l -0.170272,-0.276726 0.348299,0.352316 c 0.280282,0.283515 0.419158,0.377021 0.711154,0.478824 1.5487014,0.539946 2.3109734,0.951589 2.8074764,1.516094 0.255617,0.290626 0.644355,0.973959 0.586809,1.031505 -0.01506,0.01506 -0.0725,-0.07268 -0.127653,-0.194979 z m -1.061588,-3.45694 c -2.0182044,-0.03335 -2.0694694,-0.03697 -2.2395464,-0.158287 -0.09573,-0.06829 -0.218602,-0.192138 -0.273042,-0.275224 -0.09757,-0.148911 -0.09684,-0.152911 0.05157,-0.280563 0.0828,-0.07122 0.183287,-0.129499 0.223297,-0.129499 0.04001,0 0.218494,-0.257488 0.39663,-0.572195 0.178136,-0.314708 0.558492,-0.975484 0.845236,-1.468391 C 9.382036,12.6804 9.616644,12.246219 9.616644,12.208463 c 0,-0.03776 -0.09419,-0.12422 -0.209301,-0.19214 L 9.1980416,11.892832 9.505035,11.855402 c 0.168846,-0.02059 0.834529,-0.07716 1.479295,-0.125716 3.976385,-0.299468 7.912411,-0.261189 11.995983,0.116665 l 0.384612,0.03559 -0.196385,0.100752 c -0.108012,0.05541 -0.212943,0.143901 -0.233181,0.196638 -0.02495,0.06502 0.22889,0.560908 0.788692,1.540715 0.67889,1.188245 0.855227,1.457559 0.992957,1.516514 0.09211,0.03943 0.200554,0.111577 0.240987,0.160333 0.101953,0.122939 -0.04331,0.336475 -0.351944,0.517345 l -0.234678,0.13753 -6.107371,0.01991 c -3.359053,0.01095 -7.036838,0.0046 -8.172854,-0.01421 z m 13.537086,-0.57841 c -2.51e-4,-0.284904 -0.145205,-0.542511 -0.367495,-0.653099 -0.284932,-0.141751 -0.528338,-0.342689 -0.696767,-0.575198 -0.223044,-0.307904 -0.205852,-0.345103 0.0736,-0.159245 0.22987,0.152883 0.9426,0.46355 0.979293,0.426857 0.04064,-0.04064 -0.166629,-0.442123 -0.605311,-1.172527 l -0.463629,-0.771943 -0.129024,0.16165 c -0.07096,0.08891 -0.210937,0.343748 -0.311054,0.566312 -0.214363,0.476542 -0.01254,0.439876 -1.77301,0.322114 -1.028198,-0.06878 -1.211442,-0.0691 -1.278555,-0.0022 -0.04309,0.04294 -0.135747,0.248658 -0.205909,0.457146 -0.121659,0.361508 -0.138718,0.382761 -0.368251,0.458768 -0.509038,0.168561 -0.881932,0.519176 -0.882448,0.829726 l -2.08e-4,0.125604 H 16.237993 14.87652 l -0.03918,-0.208834 c -0.05441,-0.29 -0.387802,-0.595123 -0.788169,-0.721328 -0.172944,-0.05452 -0.322385,-0.125019 -0.332091,-0.156674 -0.0097,-0.03166 -0.05594,-0.195718 -0.102745,-0.364585 -0.149379,-0.538946 -0.05462,-0.511218 -1.42979,-0.418367 -1.727223,0.116622 -1.510587,0.162696 -1.773191,-0.377124 -0.372946,-0.76664 -0.340895,-0.757549 -0.701271,-0.19892 -0.5130184,0.795242 -0.8443534,1.441002 -0.7393684,1.441002 0.132977,0 0.7545524,-0.26228 0.9885362,-0.417124 0.1779592,-0.117767 0.2001682,-0.121946 0.1769882,-0.0333 -0.04954,0.189438 -0.364865,0.512488 -0.666269,0.68259 -0.3518154,0.198552 -0.5066444,0.37638 -0.5557904,0.63835 -0.07319,0.39016 -0.74412,0.357613 7.3716694,0.357613 h 7.342594 z m -13.120411,-0.60385 c -0.04804,-0.08976 -0.04199,-0.145558 0.02724,-0.251208 l 0.08899,-0.135816 h 1.327322 c 1.393676,0 1.461299,0.01163 1.461299,0.251207 0,0.240041 -0.06617,0.251208 -1.488534,0.251208 -1.312071,0 -1.356493,-0.0036 -1.416312,-0.115391 z m 8.610049,0.0484 c -0.03684,-0.03684 -0.06699,-0.119742 -0.06699,-0.184219 0,-0.240092 0.066,-0.251207 1.491695,-0.251207 h 1.357717 l 0.06037,0.132498 c 0.04382,0.09618 0.04296,0.165038 -0.0032,0.251208 -0.06211,0.116056 -0.09381,0.118709 -1.418087,0.118709 -0.979112,0 -1.373124,-0.01857 -1.421545,-0.06699 z M 18.713104,13.94599 c 0.09934,-0.394529 0.406349,-1.023754 0.616008,-1.262543 0.264443,-0.301184 0.543812,-0.428222 0.9417,-0.428222 0.257662,0 0.339124,-0.02066 0.366909,-0.09307 0.01964,-0.05119 0.01605,-0.112284 -0.008,-0.135767 -0.05144,-0.05026 -1.191309,-0.142155 -2.426292,-0.195601 -0.769653,-0.03331 -0.886409,-0.02682 -0.96695,0.05372 -0.136188,0.136188 -1.874653,0.136775 -1.987609,6.71e-4 -0.06646,-0.08007 -0.182237,-0.08648 -0.969798,-0.05367 -0.991928,0.04133 -2.30623,0.135974 -2.41794,0.174116 -0.05453,0.01862 -0.05747,0.05215 -0.01199,0.137123 0.04913,0.09181 0.116574,0.112475 0.367055,0.112475 0.168773,0 0.387696,0.0352 0.486495,0.07821 0.398865,0.173662 0.737386,0.642616 0.966673,1.339135 0.08197,0.249015 0.159714,0.471595 0.172756,0.494622 0.01304,0.02303 1.09944,0.04187 2.414219,0.04187 h 2.390505 z M 14.473323,11.323117 C 12.687492,11.237417 10.496225,10.85961 9.9223738,10.538466 9.692876,10.410033 11.086294,10.040499 12.491575,9.8571145 c 3.22053,-0.420266 7.425272,-0.191385 9.266767,0.5044275 l 0.334943,0.126559 -0.307031,0.13518 c -1.153502,0.507864 -4.546682,0.832586 -7.312931,0.699836 z M 9.596207,10.014579 C 9.582067,9.942049 9.543137,9.6533285 9.509707,9.3729755 9.312103,7.7161455 8.5796786,6.2568205 7.8483146,6.0627225 c -0.25038,-0.06645 -0.451398,-0.263819 -0.634762,-0.623243 -0.05994,-0.11749 -0.10898,-0.228872 -0.10898,-0.247516 0,-0.04751 0.200025,0.01886 0.550435,0.182639 0.259979,0.121514 0.315979,0.177738 0.42694,0.428641 0.14903,0.336982 0.640962,0.818775 1.2158374,1.190778 0.490975,0.31771 0.78311,0.444253 1.132245,0.490446 0.524418,0.06938 1.129995,-0.320381 1.314743,-0.846204 0.122549,-0.348796 0.08648,-1.042449 -0.07889,-1.517229 -0.189601,-0.544345 -0.270545,-0.654875 -0.602931,-0.823308 -0.361709,-0.183291 -0.468574,-0.40815 -0.423585,-0.891278 0.03385,-0.363539 0.08071,-0.529639 0.149413,-0.529639 0.119001,0 0.739196,0.526555 0.820152,0.696321 0.08503,0.178304 0.085,0.212828 -3.52e-4,0.477114 -0.08972,0.277795 -0.08872,0.293 0.03995,0.609675 0.07258,0.178626 0.240341,0.4848 0.372797,0.680386 1.175817,1.736221 2.706891,1.975836 3.435657,0.537684 0.251436,-0.496185 0.479522,-1.663636 0.392649,-2.009764 -0.01818,-0.07244 -0.134323,-0.2414 -0.258093,-0.375467 -0.307516,-0.333099 -0.310203,-0.578892 -0.01137,-1.039929 0.117516,-0.181303 0.257416,-0.365559 0.310888,-0.409458 0.08677,-0.07124 0.11177,-0.06224 0.232559,0.08374 0.07443,0.08995 0.213831,0.319581 0.30977,0.510283 0.210044,0.417511 0.191933,0.551757 -0.120106,0.89028 -0.277614,0.301175 -0.301932,0.410902 -0.223348,1.007791 0.183614,1.394658 0.690893,2.158122 1.509528,2.271866 0.327016,0.04544 0.84044,-0.08901 1.185507,-0.310438 0.55051,-0.353262 1.279224,-1.274108 1.531952,-1.935867 0.08639,-0.226198 0.0862,-0.259466 -0.0029,-0.507109 -0.113711,-0.316218 -0.07628,-0.454237 0.195984,-0.72261 0.212926,-0.209885 0.651301,-0.483938 0.698541,-0.436698 0.01725,0.01725 0.04261,0.240106 0.05636,0.495241 0.03082,0.57197 -0.01822,0.676009 -0.432838,0.918182 -0.266854,0.155868 -0.333035,0.229313 -0.455947,0.505992 -0.206412,0.46464 -0.27838,0.772317 -0.284628,1.21684 -0.0067,0.474974 0.08454,0.756979 0.334234,1.033365 0.277504,0.307163 0.684433,0.466577 1.068515,0.418589 0.702387,-0.08776 2.221116,-1.153691 2.326337,-1.632761 0.0203,-0.09242 0.0922,-0.219973 0.159778,-0.283461 0.149251,-0.140213 0.758171,-0.425958 0.805934,-0.378195 0.04586,0.04585 -0.18927,0.469117 -0.367706,0.661925 -0.07859,0.08492 -0.238872,0.18025 -0.356177,0.211837 -0.281833,0.07589 -0.743238,0.540872 -0.981711,0.989323 -0.336775,0.633307 -0.639023,1.696337 -0.715122,2.515141 -0.04197,0.4515345 -0.0885,0.5618895 -0.19844,0.4706435 -0.15386,-0.1276925 -0.68824,-0.2991675 -1.346453,-0.4320565 -2.652075,-0.535436 -7.084065,-0.535436 -9.73614,0 -0.707025,0.142744 -1.203994,0.3083194 -1.367614,0.4556475 -0.08664,0.07801 -0.09733,0.07391 -0.120766,-0.04628 z"
     id="path2" /></svg>
